<?xml version="1.0" standalone="no"?>
<!DOCTYPE svg PUBLIC "-//W3C//DTD SVG 20010904//EN"
 "http://www.w3.org/TR/2001/REC-SVG-20010904/DTD/svg10.dtd">
<svg version="1.0" xmlns="http://www.w3.org/2000/svg"
 width="180.000000pt" height="180.000000pt" viewBox="0 0 180.000000 180.000000"
 preserveAspectRatio="xMidYMid meet">
<metadata>
Created by potrace 1.11, written by Peter Selinger 2001-2013
</metadata>
<g transform="translate(0.000000,180.000000) scale(0.100000,-0.100000)"
fill="#000000" stroke="none">
<path d="M985 1531 c-29 -13 -53 -42 -68 -87 l-14 -39 -124 -6 -123 -7 -41 33
c-66 53 -152 98 -178 91 -27 -6 -84 -82 -98 -129 -5 -17 -10 -64 -10 -104 0
-65 -3 -77 -34 -122 -18 -28 -43 -76 -54 -106 -20 -52 -44 -212 -35 -226 6
-10 -7 -39 -17 -39 -26 0 -119 -43 -119 -56 0 -18 -1 -18 51 6 24 11 55 20 69
20 22 0 27 -7 42 -58 9 -31 13 -58 8 -60 -18 -7 -61 -44 -56 -50 3 -3 21 3 39
13 l34 18 36 -39 c20 -21 37 -44 37 -50 0 -6 -11 -21 -25 -34 -24 -22 -34 -50
-18 -50 4 0 22 14 40 31 l32 32 49 -21 c27 -12 68 -24 91 -28 22 -4 41 -8 41
-10 0 -10 -155 -154 -165 -154 -17 0 -45 -33 -45 -53 0 -9 10 -46 22 -83 17
-52 29 -70 57 -90 20 -13 44 -24 53 -24 11 0 18 -8 18 -20 0 -20 7 -20 376
-20 l377 0 -7 61 c-4 34 -16 89 -26 122 -11 34 -18 62 -17 63 1 0 27 9 57 18
111 36 195 81 218 118 34 54 30 117 -9 159 l-30 32 25 25 25 25 58 -22 c32
-13 69 -25 82 -28 44 -11 12 18 -55 48 -35 16 -64 34 -64 39 0 6 7 27 15 46
13 31 19 35 37 30 13 -4 39 -9 58 -12 33 -5 34 -5 15 11 -11 8 -36 20 -57 26
l-38 10 7 47 c3 26 9 51 14 56 4 5 42 3 89 -4 44 -7 84 -10 87 -6 11 11 -66
36 -114 36 -26 0 -53 4 -59 8 -6 4 -19 41 -28 82 -9 41 -28 95 -41 119 -19 32
-25 56 -24 95 3 87 -38 283 -64 305 -17 14 -86 -3 -170 -41 l-68 -31 -29 32
c-16 17 -45 38 -65 46 -39 17 -42 17 -70 6z m392 -82 c6 -19 14 -56 18 -82 l7
-47 -69 0 c-57 0 -73 4 -87 19 -10 11 -30 21 -45 23 -42 5 -40 41 4 68 47 29
126 60 145 57 8 -1 20 -18 27 -38z m-852 -6 c22 -15 56 -43 76 -64 l35 -38 91
11 c49 6 105 8 125 4 l35 -6 -1 -71 c-1 -63 2 -73 23 -90 25 -21 76 -25 128
-10 27 8 35 6 54 -15 12 -13 36 -26 53 -30 24 -4 36 -16 52 -47 12 -23 33 -51
48 -61 25 -19 29 -19 68 -6 29 10 52 28 73 57 16 23 34 42 38 42 14 1 58 -106
64 -157 l6 -50 -46 -7 c-25 -4 -54 -14 -64 -22 -16 -13 -14 -14 22 -7 80 14
80 14 80 -36 l0 -45 -50 -11 c-50 -12 -50 -12 -12 -13 46 -1 56 -20 34 -66
-15 -31 -19 -34 -54 -29 l-38 5 28 -16 c26 -15 26 -17 11 -39 -20 -31 -39 -38
-68 -24 -36 16 -68 3 -93 -36 -18 -28 -35 -39 -90 -57 -57 -18 -99 -23 -260
-27 -247 -6 -426 14 -478 52 -19 14 -19 15 -1 35 23 25 15 27 -20 5 -24 -16
-26 -16 -54 11 -38 37 -38 52 3 69 l32 15 -45 -2 c-38 -2 -46 1 -56 23 -7 14
-14 39 -16 55 -3 29 -2 30 47 35 55 5 40 20 -20 20 -29 0 -34 4 -40 29 -3 16
-1 65 4 108 14 97 56 186 116 247 49 49 56 66 25 66 -18 0 -20 7 -20 55 0 61
19 117 52 152 25 27 43 24 103 -14z m802 -874 c6 -6 26 -13 44 -15 41 -6 79
-45 79 -82 0 -43 -34 -87 -85 -112 -25 -12 -48 -20 -51 -17 -3 2 -20 41 -39
85 -29 69 -32 82 -19 93 8 6 14 17 14 23 0 29 37 45 57 25z m-78 -154 c18 -42
29 -80 26 -84 -7 -12 -96 -42 -105 -36 -10 6 -37 86 -45 136 -7 36 -6 37 32
47 21 5 43 10 50 11 6 1 25 -33 42 -74z m-279 -4 c0 -29 0 -29 -75 -36 -74 -7
-145 -1 -145 13 0 4 -3 17 -6 30 -6 22 -6 22 110 22 l116 0 0 -29z m-394 -35
c-11 -95 -16 -100 -74 -64 l-35 22 52 48 c29 26 55 48 58 48 3 0 3 -24 -1 -54z
m128 -69 c9 -15 7 -21 -8 -32 -35 -26 -74 13 -44 43 16 16 38 12 52 -11z m361
-7 c0 -20 -6 -26 -26 -28 -30 -4 -46 22 -28 45 20 23 54 12 54 -17z m-562 -25
c20 -14 37 -27 37 -28 0 -1 -11 -38 -24 -82 -23 -76 -25 -80 -51 -78 -31 2
-75 38 -75 62 -1 9 -7 33 -14 53 -15 43 -9 56 36 79 45 23 48 23 91 -6z"/>
<path d="M1200 854 c-25 -29 -10 -104 21 -104 35 0 52 76 23 104 -19 20 -28
20 -44 0z"/>
<path d="M486 838 c-9 -12 -16 -29 -16 -38 0 -19 28 -60 40 -60 37 0 53 75 22
103 -24 22 -28 21 -46 -5z"/>
<path d="M822 724 c-46 -32 -21 -74 45 -74 32 0 45 5 53 19 13 26 3 50 -27 62
-33 12 -45 11 -71 -7z m78 -19 c10 -12 10 -18 0 -30 -22 -27 -80 -16 -80 15 0
31 58 41 80 15z"/>
</g>
</svg>
